C:\Users\menth\Documents\Programmas\PredSimResults\gait9dof18musc\gait9dof18musc_v1.mot
version=1
nRows=16
nColumns=28
inDegrees=yes
endheader
                time	         pelvis_tilt	           pelvis_tx	           pelvis_ty	       hip_flexion_r	        knee_angle_r	       ankle_angle_r	       hip_flexion_l	        knee_angle_l	       ankle_angle_l	hamstrings_r/activation	bifemsh_r/activation	glut_max_r/activation	iliopsoas_r/activation	rect_fem_r/activation	  vasti_r/activation	gastroc_r/activation	 soleus_r/activation	tib_ant_r/activation	hamstrings_l/activation	bifemsh_l/activation	glut_max_l/activation	iliopsoas_l/activation	rect_fem_l/activation	  vasti_l/activation	gastroc_l/activation	 soleus_l/activation	tib_ant_l/activation	
          0.00000000	         -8.68877679	          0.00000000	          0.89693980	         34.32237047	         -8.98682745	          8.69187013	        -10.03678943	         -9.40071856	          7.62929603	          0.19649245	          0.25650919	          0.09645248	          0.07995052	          0.06038289	          0.04999999	          0.08965432	          0.04999999	          0.25041211	          0.04999999	          0.13047190	          0.04999999	          0.46307042	          0.04999999	          0.04999999	          0.44756657	          0.33287561	          0.04999999	
          0.01245949	         -8.63756066	          0.01650397	          0.89583163	         33.87995257	        -10.00276564	          8.34120019	         -9.57863590	        -12.22910574	          6.77103384	          0.17956836	          0.21240216	          0.21188487	          0.06620294	          0.04999999	          0.04999999	          0.07913044	          0.05358831	          0.23908314	          0.04999999	          0.10803711	          0.04999999	          0.38344496	          0.04999999	          0.04999999	          0.38206153	          0.29867545	          0.04999999	
          0.02491897	         -8.57330682	          0.03315853	          0.89511294	         33.44678267	        -11.27578570	          7.90877911	         -8.81171257	        -15.57611774	          5.45413984	          0.16737473	          0.17587938	          0.32981552	          0.05481927	          0.04999999	          0.04999999	          0.06552388	          0.04999999	          0.28786271	          0.08119651	          0.08946002	          0.10635207	          0.31751119	          0.04999999	          0.04999999	          0.31636564	          0.24731788	          0.04999999	
          0.03737846	         -8.53015255	          0.04956231	          0.89505523	         33.17946840	        -12.73900249	          7.35696273	         -7.64044446	        -19.43441312	          3.42970684	          0.15763394	          0.14563673	          0.41075168	          0.04999999	          0.04999999	          0.19562189	          0.05736304	          0.04999999	          0.31223966	          0.07901780	          0.07407727	          0.08806471	          0.26291480	          0.04999999	          0.04999999	          0.26196623	          0.20479131	          0.04999999	
          0.04983795	         -8.50338473	          0.06565428	          0.89569234	         32.92461666	        -14.15311798	          6.90935320	         -6.12423923	        -23.65838423	          0.69383540	          0.15430678	          0.12059434	          0.46997148	          0.04999999	          0.04999999	          0.32192428	          0.04999999	          0.04999999	          0.34038311	          0.07566876	          0.06133960	          0.07292189	          0.21770632	          0.04999999	          0.04999999	          0.21692085	          0.16957722	          0.29034888	
          0.06229743	         -8.49597506	          0.08133474	          0.89666623	         32.51820375	        -15.21893974	          6.58324263	         -4.43537144	        -27.95234524	         -1.45811227	          0.14929507	          0.09985801	          0.47879920	          0.04999999	          0.04999999	          0.37428033	          0.04999999	          0.04999999	          0.36285590	          0.07727829	          0.08544377	          0.06038289	          0.18027148	          0.04999999	          0.04999999	          0.17962108	          0.14041824	          0.24418140	
          0.07475692	         -8.50974172	          0.09655566	          0.89790108	         31.94720583	        -15.91207948	          6.36621859	         -2.75864986	        -31.83053710	         -1.80234562	          0.14527938	          0.08268732	          0.45336332	          0.04999999	          0.04999999	          0.38077318	          0.04999999	          0.04999999	          0.36674233	          0.07957103	          0.12804353	          0.04999999	          0.14927361	          0.04999999	          0.04999999	          0.14873504	          0.11627317	          0.28707731	
          0.08721641	         -8.54012005	          0.11135570	          0.89954169	         31.26175105	        -16.33885695	          6.28028804	         -1.14236183	        -35.12729456	         -1.48742405	          0.14220801	          0.06846914	          0.41604098	          0.04999999	          0.04999999	          0.37057044	          0.04999999	          0.04999999	          0.35721019	          0.08166529	          0.17574740	          0.04999999	          0.13454094	          0.04999999	          0.04999999	          0.12315989	          0.09627987	          0.28382803	
          0.09967589	         -8.58271359	          0.12578415	          0.90159513	         30.50406725	        -16.58471530	          6.31026751	          0.40329906	        -37.82647616	         -0.97263233	          0.14039490	          0.05669580	          0.37878112	          0.04999999	          0.04999999	          0.35104756	          0.04999999	          0.04999999	          0.33830918	          0.07250538	          0.22940168	          0.04999999	          0.13245459	          0.04999999	          0.04999999	          0.11248705	          0.07972444	          0.26271292	
          0.11213538	         -8.63337205	          0.13989799	          0.90398214	         29.68908762	        -16.68476209	          6.41819139	          1.88315375	        -39.97619621	         -0.32648859	          0.13972811	          0.04999999	          0.34611033	          0.04999999	          0.04999999	          0.32701959	          0.04999999	          0.04999999	          0.31893406	          0.06003800	          0.28722477	          0.04999999	          0.13352631	          0.04999999	          0.04999999	          0.10528846	          0.06601574	          0.24345588	
          0.12459487	         -8.68952562	          0.15374407	          0.90658758	         28.82594797	        -16.66130599	          6.57275875	          3.31395251	        -41.65106685	          0.39466961	          0.13947679	          0.04999999	          0.31975932	          0.04999999	          0.04999999	          0.30456796	          0.04999999	          0.04999999	          0.29520221	          0.04999999	          0.34849048	          0.04999999	          0.13544116	          0.04999999	          0.04999999	          0.09172753	          0.05466426	          0.22157397	
          0.13705435	         -8.74951936	          0.16735728	          0.90929502	         27.92383871	        -16.53569006	          6.75930690	          4.71680511	        -42.93534086	          1.14274744	          0.13910853	          0.04999999	          0.29867597	          0.04999999	          0.04999999	          0.28421719	          0.04999999	          0.04999999	          0.26847122	          0.04999999	          0.41654509	          0.04999999	          0.13784144	          0.04999999	          0.04999999	          0.07595488	          0.04999999	          0.20686857	
          0.14951384	         -8.81141731	          0.18076621	          0.91200683	         26.98918170	        -16.32282615	          6.95081694	          6.11179004	        -43.91529519	          1.87461264	          0.13857192	          0.04999999	          0.28214806	          0.04999999	          0.04999999	          0.26626297	          0.04999999	          0.04999999	          0.24096587	          0.04999999	          0.48783112	          0.04999999	          0.13969257	          0.04999999	          0.04999999	          0.06289436	          0.04999999	          0.19955999	
          0.16197333	         -8.87325546	          0.19399454	          0.91464426	         26.02703191	        -16.03390249	          7.11314494	          7.51594631	        -44.67302159	          2.58217108	          0.13783396	          0.04999999	          0.26936011	          0.04999999	          0.04999999	          0.25025107	          0.05551400	          0.05397421	          0.21870063	          0.04999999	          0.55682206	          0.04999999	          0.14063861	          0.04999999	          0.04999999	          0.05207960	          0.04999999	          0.19285834	
          0.17443281	         -8.93333299	          0.20706116	          0.91714737	         25.04326132	        -15.68148452	          7.21962681	          8.94291856	        -45.28019992	          3.26898128	          0.13672672	          0.04999999	          0.25966023	          0.04999999	          0.04999999	          0.23701799	          0.06823762	          0.05943461	          0.20034742	          0.04999999	          0.61898721	          0.04999999	          0.14045958	          0.04999999	          0.04999999	          0.04999999	          0.04999999	          0.19197751	
          0.18689230	         -8.99016311	          0.21998146	          0.91947546	         24.04392328	        -15.28125079	          7.27408198	         10.40352272	        -45.79786105	          3.92281697	          0.13505776	          0.04999999	          0.25172493	          0.04999999	          0.04999999	          0.22658941	          0.08114652	          0.06576553	          0.18321842	          0.04999999	          0.67066554	          0.04999999	          0.13976812	          0.05304806	          0.04999999	          0.04999999	          0.04999999	          0.19330979	
